# Blender v2.76 (sub 0) OBJ File: ''
# www.blender.org
mtllib fir_trunk.mtl
o g1
v 0.032500 0.000000 -0.056300
v 0.025400 0.700000 -0.044100
v 0.050900 0.700000 0.000000
v 0.065000 0.000000 0.000000
v -0.032500 0.000000 -0.056300
v -0.025400 0.700000 -0.044100
v -0.065000 0.000000 0.000000
v -0.050900 0.700000 0.000000
v -0.032500 -0.000000 0.056300
v -0.025400 0.700000 0.044100
v 0.032500 -0.000000 0.056300
v 0.025400 0.700000 0.044100
v 0.032300 1.329500 -0.033700
v 0.052300 1.329100 0.000900
v -0.007600 1.330300 -0.033700
v -0.027600 1.330700 0.000900
v -0.007700 1.330200 0.035400
v 0.032300 1.329400 0.035400
v 0.041500 1.896600 -0.018000
v 0.056700 1.895900 0.008400
v 0.011000 1.897400 -0.018000
v -0.004200 1.897400 0.008400
v 0.011000 1.896700 0.034900
v 0.041500 1.895900 0.034900
v 0.043500 2.407000 -0.004800
v 0.055400 2.406600 0.015800
v 0.019700 2.407300 -0.004800
v 0.007800 2.407100 0.015800
v 0.019700 2.406700 0.036400
v 0.043500 2.406500 0.036400
v 0.044600 2.866300 0.008500
v 0.053600 2.865900 0.024200
v 0.026500 2.866400 0.008500
v 0.017400 2.866200 0.024200
v 0.026500 2.865800 0.039900
v 0.044600 2.865700 0.039900
v 0.049200 3.279300 0.013001
v 0.056200 3.279100 0.025201
v 0.035100 3.279500 0.013001
v 0.028000 3.279600 0.025201
v 0.035100 3.279400 0.037401
v 0.049100 3.279200 0.037401
v 0.051300 3.651300 0.017601
v 0.056600 3.651200 0.026801
v 0.040600 3.651400 0.017601
v 0.035300 3.651400 0.026801
v 0.040600 3.651300 0.036001
v 0.051300 3.651200 0.036001
v 0.050200 3.986200 0.024301
v 0.054300 3.986100 0.031501
v 0.041800 3.986200 0.024301
v 0.037600 3.986100 0.031501
v 0.041800 3.986000 0.038701
v 0.050200 3.986000 0.038701
vt 0.500000 0.000000
vt 0.500000 1.442000
vt 0.000000 1.442000
vt 0.000000 0.000000
vt 1.000000 0.000000
vt 1.000000 1.442000
vt 1.500000 0.000000
vt 1.500000 1.442000
vt 2.000000 0.000000
vt 2.000000 1.442000
vt 2.500000 0.000000
vt 2.500000 1.442000
vt 3.000000 0.000000
vt 3.000000 1.442000
vt 0.500000 3.098100
vt 0.000000 3.098100
vt 1.000000 3.098100
vt 1.500000 3.098100
vt 2.000000 3.098100
vt 2.500000 3.098100
vt 3.000000 3.098100
vt 0.500000 5.019900
vt 0.000000 5.019900
vt 1.000000 5.019900
vt 1.500000 5.019900
vt 2.000000 5.019900
vt 2.500000 5.019900
vt 3.000000 5.019900
vt 0.500000 7.263700
vt 0.000000 7.263700
vt 1.000000 7.263700
vt 1.500000 7.263700
vt 2.000000 7.263700
vt 2.500000 7.263700
vt 3.000000 7.263700
vt 0.500000 9.879300
vt 0.000000 9.879300
vt 1.000000 9.879300
vt 1.500000 9.879300
vt 2.000000 9.879300
vt 2.500000 9.879300
vt 3.000000 9.879300
vt 0.500000 12.943700
vt 0.000000 12.943700
vt 1.000000 12.943700
vt 1.500000 12.943700
vt 2.000000 12.943700
vt 2.500000 12.943700
vt 3.000000 12.943700
vt 0.500000 16.538601
vt 0.000000 16.538601
vt 1.000000 16.538601
vt 1.500000 16.538601
vt 2.000000 16.538601
vt 2.500000 16.538601
vt 3.000000 16.538601
vt 0.500000 20.749800
vt 0.000000 20.749800
vt 1.000000 20.749800
vt 1.500000 20.749800
vt 2.000000 20.749800
vt 2.500000 20.749800
vt 3.000000 20.749800
vn 0.500000 0.000000 -0.866000
vn 1.000000 -0.000000 -0.000000
vn -0.500000 -0.000000 -0.866000
vn -1.000000 -0.000000 -0.000000
vn -0.500000 0.000000 0.866000
vn 0.500000 -0.000000 0.866000
vn 0.499900 -0.008600 -0.866000
vn 0.999800 -0.019500 -0.000000
vn -0.499900 0.011000 -0.866000
vn -0.999800 0.019500 -0.000000
vn -0.499900 0.008600 0.866000
vn 0.499900 -0.011000 0.866000
vn 0.500100 -0.000700 -0.866000
vn 0.999700 -0.024600 -0.000000
vn -0.499600 0.023900 -0.865900
vn -0.999700 0.024600 0.000000
vn -0.500100 0.000700 0.866000
vn 0.499600 -0.023900 0.865900
vn 0.500200 0.007300 -0.865900
vn 0.999900 -0.010500 0.000200
vn -0.499700 0.017800 -0.866000
vn -0.999900 0.010500 -0.000200
vn -0.500200 -0.007300 0.865900
vn 0.499700 -0.017800 0.866000
vn 0.500300 0.011500 -0.865800
vn 1.000000 -0.008500 0.000200
vn -0.499700 0.020000 -0.866000
vn -1.000000 0.008500 -0.000200
vn -0.500300 -0.011500 0.865800
vn 0.499700 -0.020000 0.866000
vn 0.500100 -0.005800 -0.866000
vn 0.999900 -0.015900 0.000100
vn -0.499800 0.010100 -0.866100
vn -0.999900 0.015900 -0.000100
vn -0.500100 0.005800 0.866000
vn 0.499800 -0.010100 0.866100
vn 0.500100 -0.001400 -0.866000
vn 0.999900 -0.010400 0.000100
vn -0.499800 0.008900 -0.866100
vn -0.999900 0.010400 -0.000100
vn -0.500100 0.001400 0.866000
vn 0.499800 -0.008900 0.866100
vn 0.500200 0.012100 -0.865800
vn 1.000000 -0.000100 0.000200
vn -0.499800 0.012200 -0.866100
vn -1.000000 0.000100 -0.000200
vn -0.500200 -0.012100 0.865800
vn 0.499800 -0.012200 0.866100
usemtl Trunk_bark
s 1
f 1/1/1 2/2/1 3/3/2
f 3/3/2 4/4/2 1/1/1
f 5/5/3 6/6/3 2/2/1
f 2/2/1 1/1/1 5/5/3
f 7/7/4 8/8/4 6/6/3
f 6/6/3 5/5/3 7/7/4
f 9/9/5 10/10/5 8/8/4
f 8/8/4 7/7/4 9/9/5
f 11/11/6 12/12/6 10/10/5
f 10/10/5 9/9/5 11/11/6
f 4/13/2 3/14/2 12/12/6
f 12/12/6 11/11/6 4/13/2
f 2/2/1 13/15/7 14/16/8
f 14/16/8 3/3/2 2/2/1
f 6/6/3 15/17/9 13/15/7
f 13/15/7 2/2/1 6/6/3
f 8/8/4 16/18/10 15/17/9
f 15/17/9 6/6/3 8/8/4
f 10/10/5 17/19/11 16/18/10
f 16/18/10 8/8/4 10/10/5
f 12/12/6 18/20/12 17/19/11
f 17/19/11 10/10/5 12/12/6
f 3/14/2 14/21/8 18/20/12
f 18/20/12 12/12/6 3/14/2
f 13/15/7 19/22/13 20/23/14
f 20/23/14 14/16/8 13/15/7
f 15/17/9 21/24/15 19/22/13
f 19/22/13 13/15/7 15/17/9
f 16/18/10 22/25/16 21/24/15
f 21/24/15 15/17/9 16/18/10
f 17/19/11 23/26/17 22/25/16
f 22/25/16 16/18/10 17/19/11
f 18/20/12 24/27/18 23/26/17
f 23/26/17 17/19/11 18/20/12
f 14/21/8 20/28/14 24/27/18
f 24/27/18 18/20/12 14/21/8
f 19/22/13 25/29/19 26/30/20
f 26/30/20 20/23/14 19/22/13
f 21/24/15 27/31/21 25/29/19
f 25/29/19 19/22/13 21/24/15
f 22/25/16 28/32/22 27/31/21
f 27/31/21 21/24/15 22/25/16
f 23/26/17 29/33/23 28/32/22
f 28/32/22 22/25/16 23/26/17
f 24/27/18 30/34/24 29/33/23
f 29/33/23 23/26/17 24/27/18
f 20/28/14 26/35/20 30/34/24
f 30/34/24 24/27/18 20/28/14
f 25/29/19 31/36/25 32/37/26
f 32/37/26 26/30/20 25/29/19
f 27/31/21 33/38/27 31/36/25
f 31/36/25 25/29/19 27/31/21
f 28/32/22 34/39/28 33/38/27
f 33/38/27 27/31/21 28/32/22
f 29/33/23 35/40/29 34/39/28
f 34/39/28 28/32/22 29/33/23
f 30/34/24 36/41/30 35/40/29
f 35/40/29 29/33/23 30/34/24
f 26/35/20 32/42/26 36/41/30
f 36/41/30 30/34/24 26/35/20
f 31/36/25 37/43/31 38/44/32
f 38/44/32 32/37/26 31/36/25
f 33/38/27 39/45/33 37/43/31
f 37/43/31 31/36/25 33/38/27
f 34/39/28 40/46/34 39/45/33
f 39/45/33 33/38/27 34/39/28
f 35/40/29 41/47/35 40/46/34
f 40/46/34 34/39/28 35/40/29
f 36/41/30 42/48/36 41/47/35
f 41/47/35 35/40/29 36/41/30
f 32/42/26 38/49/32 42/48/36
f 42/48/36 36/41/30 32/42/26
f 37/43/31 43/50/37 44/51/38
f 44/51/38 38/44/32 37/43/31
f 39/45/33 45/52/39 43/50/37
f 43/50/37 37/43/31 39/45/33
f 40/46/34 46/53/40 45/52/39
f 45/52/39 39/45/33 40/46/34
f 41/47/35 47/54/41 46/53/40
f 46/53/40 40/46/34 41/47/35
f 42/48/36 48/55/42 47/54/41
f 47/54/41 41/47/35 42/48/36
f 38/49/32 44/56/38 48/55/42
f 48/55/42 42/48/36 38/49/32
f 43/50/37 49/57/43 50/58/44
f 50/58/44 44/51/38 43/50/37
f 45/52/39 51/59/45 49/57/43
f 49/57/43 43/50/37 45/52/39
f 46/53/40 52/60/46 51/59/45
f 51/59/45 45/52/39 46/53/40
f 47/54/41 53/61/47 52/60/46
f 52/60/46 46/53/40 47/54/41
f 48/55/42 54/62/48 53/61/47
f 53/61/47 47/54/41 48/55/42
f 44/56/38 50/63/44 54/62/48
f 54/62/48 48/55/42 44/56/38
